<svg width="40" height="40" viewBox="0 0 40 40" fill="none" xmlns="http://www.w3.org/2000/svg">
<circle cx="20" cy="20" r="20" fill="#007AFF"/>
<path fill-rule="evenodd" clip-rule="evenodd" d="M20 37.8947C29.883 37.8947 37.8947 29.883 37.8947 20C37.8947 10.117 29.883 2.10526 20 2.10526C10.117 2.10526 2.10526 10.117 2.10526 20C2.10526 29.883 10.117 37.8947 20 37.8947ZM20 40C31.0457 40 40 31.0457 40 20C40 8.95431 31.0457 0 20 0C8.95431 0 0 8.95431 0 20C0 31.0457 8.95431 40 20 40Z" fill="#007AFF"/>
<path d="M21.2025 14.9741C20.6787 14.4381 20.6787 13.5697 21.2025 13.0336C21.7264 12.4976 22.5757 12.4976 23.099 13.0336L28.7889 18.8557C29.0469 19.1197 29.1779 19.4642 29.1818 19.8099C29.189 20.1697 29.058 20.5309 28.7889 20.8063L23.099 26.6284C22.5757 27.1644 21.7264 27.1644 21.2025 26.6284C20.6787 26.0923 20.6787 25.224 21.2025 24.6879L24.6077 21.2036H10.8148C10.0741 21.2036 9.47363 20.5892 9.47363 19.8313C9.47363 19.0735 10.0741 18.4591 10.8148 18.4591H24.6084L21.2025 14.9741Z" fill="white"/>
</svg>
