<svg width="28" height="28" viewBox="0 0 28 28" fill="none" xmlns="http://www.w3.org/2000/svg">
<path fill-rule="evenodd" clip-rule="evenodd" d="M17.1899 13.9999L26.4052 4.7846C27.286 3.90378 27.286 2.47568 26.4052 1.59486C25.5244 0.714043 24.0963 0.714042 23.2155 1.59486L14.0001 10.8102L4.78481 1.59486C3.90399 0.714042 2.4759 0.714043 1.59508 1.59486C0.71426 2.47568 0.71426 3.90378 1.59508 4.7846L10.8104 13.9999L1.59487 23.2154C0.714049 24.0962 0.714049 25.5243 1.59487 26.4051C2.47569 27.286 3.90378 27.286 4.7846 26.4051L14.0001 17.1896L23.2157 26.4051C24.0965 27.286 25.5246 27.286 26.4054 26.4051C27.2862 25.5243 27.2862 24.0962 26.4054 23.2154L17.1899 13.9999Z" fill="white"/>
</svg>
